<svg xmlns="http://www.w3.org/2000/svg" viewBox="0 0 800 600">
  <!-- Background Shape -->
  <path d="M50 100 Q400 0 750 100 L750 500 Q400 600 50 500 Z" fill="#F3F4F6"/>
  
  <!-- Main Calendar -->
  <rect x="150" y="100" width="500" height="400" rx="16" fill="#FFFFFF" stroke="#4F46E5" stroke-width="5"/>
  
  <!-- Calendar Header -->
  <rect x="150" y="100" width="500" height="80" rx="16" fill="#4F46E5"/>
  <text x="400" y="150" font-family="Arial, sans-serif" font-size="32" font-weight="bold" fill="#FFFFFF" text-anchor="middle">March 2025</text>
  
  <!-- Week Days -->
  <text x="197" y="215" font-family="Arial, sans-serif" font-size="16" fill="#374151" text-anchor="middle">Mon</text>
  <text x="267" y="215" font-family="Arial, sans-serif" font-size="16" fill="#374151" text-anchor="middle">Tue</text>
  <text x="337" y="215" font-family="Arial, sans-serif" font-size="16" fill="#374151" text-anchor="middle">Wed</text>
  <text x="407" y="215" font-family="Arial, sans-serif" font-size="16" fill="#374151" text-anchor="middle">Thu</text>
  <text x="477" y="215" font-family="Arial, sans-serif" font-size="16" fill="#374151" text-anchor="middle">Fri</text>
  <text x="547" y="215" font-family="Arial, sans-serif" font-size="16" fill="#374151" text-anchor="middle">Sat</text>
  <text x="617" y="215" font-family="Arial, sans-serif" font-size="16" fill="#374151" text-anchor="middle">Sun</text>
  
  <!-- Grid Lines -->
  <line x1="232" y1="190" x2="232" y2="500" stroke="#E5E7EB" stroke-width="1"/>
  <line x1="302" y1="190" x2="302" y2="500" stroke="#E5E7EB" stroke-width="1"/>
  <line x1="372" y1="190" x2="372" y2="500" stroke="#E5E7EB" stroke-width="1"/>
  <line x1="442" y1="190" x2="442" y2="500" stroke="#E5E7EB" stroke-width="1"/>
  <line x1="512" y1="190" x2="512" y2="500" stroke="#E5E7EB" stroke-width="1"/>
  <line x1="582" y1="190" x2="582" y2="500" stroke="#E5E7EB" stroke-width="1"/>
  
  <line x1="150" y1="240" x2="650" y2="240" stroke="#E5E7EB" stroke-width="1"/>
  <line x1="150" y1="290" x2="650" y2="290" stroke="#E5E7EB" stroke-width="1"/>
  <line x1="150" y1="340" x2="650" y2="340" stroke="#E5E7EB" stroke-width="1"/>
  <line x1="150" y1="390" x2="650" y2="390" stroke="#E5E7EB" stroke-width="1"/>
  <line x1="150" y1="440" x2="650" y2="440" stroke="#E5E7EB" stroke-width="1"/>
  
  <!-- Date Numbers -->
  <!-- Week 1 -->
  <text x="197" y="265" font-family="Arial, sans-serif" font-size="18" fill="#374151" text-anchor="middle">1</text>
  <text x="267" y="265" font-family="Arial, sans-serif" font-size="18" fill="#374151" text-anchor="middle">2</text>
  <text x="337" y="265" font-family="Arial, sans-serif" font-size="18" fill="#374151" text-anchor="middle">3</text>
  <text x="407" y="265" font-family="Arial, sans-serif" font-size="18" fill="#374151" text-anchor="middle">4</text>
  <text x="477" y="265" font-family="Arial, sans-serif" font-size="18" fill="#374151" text-anchor="middle">5</text>
  <text x="547" y="265" font-family="Arial, sans-serif" font-size="18" fill="#374151" text-anchor="middle">6</text>
  <text x="617" y="265" font-family="Arial, sans-serif" font-size="18" fill="#374151" text-anchor="middle">7</text>
  
  <!-- Week 2 -->
  <text x="197" y="315" font-family="Arial, sans-serif" font-size="18" fill="#374151" text-anchor="middle">8</text>
  <text x="267" y="315" font-family="Arial, sans-serif" font-size="18" fill="#374151" text-anchor="middle">9</text>
  <text x="337" y="315" font-family="Arial, sans-serif" font-size="18" fill="#374151" text-anchor="middle">10</text>
  <text x="407" y="315" font-family="Arial, sans-serif" font-size="18" fill="#374151" text-anchor="middle">11</text>
  <text x="477" y="315" font-family="Arial, sans-serif" font-size="18" fill="#374151" text-anchor="middle">12</text>
  
  <!-- Highlighted Day with Circle -->
  <circle cx="547" cy="315" r="20" fill="#4F46E5" opacity="0.2"/>
  <text x="547" y="315" font-family="Arial, sans-serif" font-size="18" font-weight="bold" fill="#4F46E5" text-anchor="middle">13</text>
  
  <text x="617" y="315" font-family="Arial, sans-serif" font-size="18" fill="#374151" text-anchor="middle">14</text>
  
  <!-- Week 3 -->
  <text x="197" y="365" font-family="Arial, sans-serif" font-size="18" fill="#374151" text-anchor="middle">15</text>
  <text x="267" y="365" font-family="Arial, sans-serif" font-size="18" fill="#374151" text-anchor="middle">16</text>
  <text x="337" y="365" font-family="Arial, sans-serif" font-size="18" fill="#374151" text-anchor="middle">17</text>
  
  <!-- Today's Date with Background -->
  <rect x="382" y="345" width="50" height="40" rx="6" fill="#10B981" opacity="0.2"/>
  <text x="407" y="365" font-family="Arial, sans-serif" font-size="18" font-weight="bold" fill="#10B981" text-anchor="middle">18</text>
  
  <text x="477" y="365" font-family="Arial, sans-serif" font-size="18" fill="#374151" text-anchor="middle">19</text>
  <text x="547" y="365" font-family="Arial, sans-serif" font-size="18" fill="#374151" text-anchor="middle">20</text>
  <text x="617" y="365" font-family="Arial, sans-serif" font-size="18" fill="#374151" text-anchor="middle">21</text>
  
  <!-- Week 4 -->
  <text x="197" y="415" font-family="Arial, sans-serif" font-size="18" fill="#374151" text-anchor="middle">22</text>
  <text x="267" y="415" font-family="Arial, sans-serif" font-size="18" fill="#374151" text-anchor="middle">23</text>
  
  <!-- Selected Dates with Check Icons -->
  <circle cx="337" cy="415" r="20" fill="#10B981" opacity="0.2"/>
  <text x="337" y="415" font-family="Arial, sans-serif" font-size="18" fill="#374151" text-anchor="middle">24</text>
  <circle cx="330" cy="400" r="8" fill="#10B981"/>
  <path d="M325 400 L329 404 L335 396" stroke="#FFFFFF" stroke-width="2" stroke-linecap="round" stroke-linejoin="round" fill="none"/>
  
  <circle cx="407" cy="415" r="20" fill="#10B981" opacity="0.2"/>
  <text x="407" y="415" font-family="Arial, sans-serif" font-size="18" fill="#374151" text-anchor="middle">25</text>
  <circle cx="400" cy="400" r="8" fill="#10B981"/>
  <path d="M395 400 L399 404 L405 396" stroke="#FFFFFF" stroke-width="2" stroke-linecap="round" stroke-linejoin="round" fill="none"/>
  
  <circle cx="477" cy="415" r="20" fill="#10B981" opacity="0.2"/>
  <text x="477" y="415" font-family="Arial, sans-serif" font-size="18" fill="#374151" text-anchor="middle">26</text>
  <circle cx="470" cy="400" r="8" fill="#10B981"/>
  <path d="M465 400 L469 404 L475 396" stroke="#FFFFFF" stroke-width="2" stroke-linecap="round" stroke-linejoin="round" fill="none"/>
  
  <text x="547" y="415" font-family="Arial, sans-serif" font-size="18" fill="#374151" text-anchor="middle">27</text>
  <text x="617" y="415" font-family="Arial, sans-serif" font-size="18" fill="#374151" text-anchor="middle">28</text>
  
  <!-- Week 5 -->
  <text x="197" y="465" font-family="Arial, sans-serif" font-size="18" fill="#374151" text-anchor="middle">29</text>
  <text x="267" y="465" font-family="Arial, sans-serif" font-size="18" fill="#374151" text-anchor="middle">30</text>
  <text x="337" y="465" font-family="Arial, sans-serif" font-size="18" fill="#374151" text-anchor="middle">31</text>
  
  <!-- Decorative Elements -->
  <!-- Floating Icons -->
  <circle cx="100" cy="200" r="30" fill="#F59E0B" opacity="0.1"/>
  <circle cx="100" cy="200" r="10" fill="#F59E0B"/>
  
  <circle cx="700" cy="350" r="40" fill="#4F46E5" opacity="0.1"/>
  <path d="M685 350 L695 360 L715 340" stroke="#4F46E5" stroke-width="3" stroke-linecap="round" stroke-linejoin="round" fill="none"/>
  
  <circle cx="120" cy="450" r="25" fill="#10B981" opacity="0.1"/>
  <path d="M110 450 L120 460 L130 440" stroke="#10B981" stroke-width="3" stroke-linecap="round" stroke-linejoin="round" fill="none"/>
  
  <!-- People Avatars Indication -->
  <circle cx="750" cy="150" r="30" fill="#F3F4F6"/>
  <circle cx="750" cy="150" r="12" fill="#6B7280"/>
  <path d="M740 155 C740 165, 760 165, 760 155" stroke="#6B7280" stroke-width="2" fill="none"/>
  
  <circle cx="720" cy="160" r="20" fill="#F3F4F6"/>
  <circle cx="720" cy="160" r="8" fill="#6B7280"/>
  <path d="M715 165 C715 172, 725 172, 725 165" stroke="#6B7280" stroke-width="2" fill="none"/>
  
  <circle cx="680" cy="150" r="25" fill="#F3F4F6"/>
  <circle cx="680" cy="150" r="10" fill="#6B7280"/>
  <path d="M670 155 C670 165, 690 165, 690 155" stroke="#6B7280" stroke-width="2" fill="none"/>
</svg>
